<svg width="20" height="20" viewBox="0 0 20 20" fill="none" xmlns="http://www.w3.org/2000/svg">
<g id="ICON">
<g id="&#229;&#189;&#162;&#231;&#138;&#182; 1">
<circle id="Ellipse 202" cx="10" cy="10" r="8" fill="url(#paint0_linear_7981_36790)"/>
<path id="&#229;&#189;&#162;&#231;&#138;&#182;" d="M10.688 15.0522L11.7334 15.8965C11.9338 16.0584 12.2272 16.0269 12.3888 15.826C12.5504 15.6252 12.5189 15.3311 12.3185 15.1692L12.118 15.0071C12.9407 14.8666 13.7352 14.5931 14.4705 14.1973C14.8878 13.9724 15.2571 13.6676 15.5575 13.3003C15.8375 12.9603 15.9936 12.5348 16 12.094C16 11.2099 15.3479 10.4068 14.1628 9.82857V10.0501C14.1629 10.3057 14.0634 10.5512 13.8853 10.7343C14.6393 11.1303 15.0675 11.6203 15.0675 12.0935C15.0675 12.5384 14.6924 12.9973 14.0107 13.3842C13.3537 13.7353 12.6437 13.9758 11.9089 14.0962L12.1276 13.7519C12.2658 13.5343 12.2017 13.2456 11.9845 13.1071C11.7673 12.9686 11.4792 13.0328 11.341 13.2504L10.587 14.438C10.4598 14.6387 10.5032 14.9031 10.688 15.0522ZM13.8286 10.6852C13.8867 10.6265 13.937 10.5608 13.9785 10.4898C14.0669 10.3394 14.1137 10.1689 14.1143 9.99531V9.77143V9.99579C14.114 10.2532 14.0121 10.5006 13.83 10.6857L13.8286 10.6852ZM6.89776 5.54986L9.2451 4.19437C9.69442 3.93521 10.2484 3.93521 10.6978 4.19437L13.0451 5.55226C13.4946 5.81404 13.7711 6.29387 13.7714 6.81282V9.5286C13.7714 9.56057 13.7703 9.59253 13.7681 9.6245C13.7469 9.94492 13.6206 10.2495 13.4087 10.4914C13.3048 10.6103 13.1819 10.7113 13.0451 10.7906L10.6978 12.1485C10.2484 12.4076 9.69442 12.4076 9.2451 12.1485L6.89776 10.7906C6.76589 10.7138 6.64705 10.6167 6.54566 10.5029C6.3307 10.2635 6.20072 9.96019 6.17576 9.63984C6.17287 9.60276 6.17143 9.56552 6.17143 9.52812V6.81042C6.17176 6.29147 6.44824 5.81164 6.89776 5.54986ZM10.2041 4.98405C10.0458 4.89103 9.85054 4.89103 9.69223 4.98405L7.54286 6.24727L9.67695 7.47078C9.85 7.56975 10.0622 7.5666 10.2323 7.46255L12.2857 6.20369L10.2041 4.98405ZM12.2657 10.1458L12.5448 9.98355C12.7027 9.89113 12.7999 9.72162 12.8 9.5383V7.02857L10.7267 8.28511C10.6414 8.33685 10.5511 8.3797 10.4571 8.413V11.2L12.2657 10.1458ZM7.08571 9.50953C7.08591 9.69279 7.18314 9.86222 7.34121 9.95469L7.6334 10.1241L9.48571 11.2V8.40355C9.38492 8.37239 9.28775 8.33048 9.1959 8.27854L7.08619 7.08571L7.08571 9.50953ZM4.00048 12.0893C4.00048 12.9325 4.59719 13.7127 5.6804 14.2867C6.83799 14.8499 8.1021 15.1612 9.38913 15.2H9.41271C9.66913 15.201 9.87928 14.997 9.88557 14.7409C9.89186 14.4849 9.69197 14.2708 9.43581 14.2593C8.28462 14.2285 7.15299 13.9546 6.11542 13.4555C5.7718 13.2851 5.46443 13.0499 5.21026 12.7628C5.04262 12.5775 4.94538 12.3394 4.93548 12.0898C4.93548 11.6192 5.35558 11.1318 6.09617 10.7352C5.90823 10.5491 5.80239 10.2958 5.80215 10.0314V9.82857C4.64002 10.4093 4 11.2096 4 12.0898L4.00048 12.0893ZM14.1714 9.99589V9.77143V9.9954C14.1714 10.2536 14.0688 10.5014 13.8857 10.6857C14.0685 10.5014 14.171 10.2538 14.1714 9.99589ZM5.82857 9.82857V10.0328C5.82896 10.3 5.93191 10.5559 6.11429 10.7429C5.93171 10.5559 5.82872 10.2997 5.82857 10.0323V9.82857Z" fill="white"/>
</g>
</g>
<defs>
<linearGradient id="paint0_linear_7981_36790" x1="2" y1="10" x2="18" y2="10" gradientUnits="userSpaceOnUse">
<stop stop-color="#0194FF"/>
<stop offset="1" stop-color="#D306FF"/>
</linearGradient>
</defs>
</svg>
