<svg width="112" height="111" viewBox="0 0 112 111" fill="none" xmlns="http://www.w3.org/2000/svg">
<g id="Group 98">
<rect id="Rectangle 1320" opacity="0.21" x="86" y="78" width="22" height="22" fill="#5F45FF"/>
<path id="&#229;&#189;&#162;&#231;&#138;&#182;&#231;&#187;&#147;&#229;&#144;&#136;" d="M98.4952 57.3469L98.485 57.4069C98.3443 58.2111 98.118 58.9829 97.812 59.7247L97.7857 59.7944C97.5282 60.5187 97.1982 61.2166 96.8001 61.8774C99.6982 63.6045 102.019 65.4784 103.709 67.4051C106.049 70.0733 107.209 72.8702 107.209 75.5834C107.209 78.1515 106.181 80.7882 104.085 83.3265C102.213 85.5933 99.4651 87.8028 95.899 89.8098C87.9341 94.0318 79.2447 96.635 70.2808 97.4784L74.8246 90.384C75.1804 89.8282 75.2757 89.1817 75.1424 88.5858C75.0093 87.9906 74.6479 87.4456 74.0893 87.0924C73.5321 86.74 72.8839 86.6454 72.2864 86.7774C71.6882 86.9096 71.1409 87.2688 70.786 87.8232L63.4837 99.2288C63.1561 99.741 63.0484 100.335 63.1413 100.895C63.2341 101.455 63.5274 101.983 64.003 102.364L74.1281 110.473C74.6423 110.885 75.2759 111.051 75.8847 110.986C76.4938 110.921 77.0778 110.625 77.4926 110.114C77.9086 109.601 78.0759 108.969 78.0103 108.363C77.9448 107.756 77.6468 107.174 77.1306 106.761L71.3716 102.144C80.8172 101.181 89.9643 98.3873 98.3005 93.9379C102.099 91.9079 105.46 89.1574 108.193 85.8422C110.601 82.9429 111.941 79.3232 112 75.5721C111.996 71.7957 110.559 68.2067 107.884 64.9357C105.606 62.1504 102.449 59.6019 98.5034 57.3515L98.4952 57.3469ZM13.3139 57.3018L13.234 57.3482C9.365 59.6045 6.26988 62.1523 4.03673 64.932C1.40925 68.2025 7.62939e-06 71.7856 7.62939e-06 75.5516C0.00208282 79.157 1.3175 82.6165 3.76856 85.7952C6.36424 89.1615 10.2095 92.2037 15.1466 94.7975C26.0596 100.054 37.9722 102.961 50.1006 103.328H50.3018C50.9681 103.332 51.5745 103.07 52.0181 102.643C52.4599 102.218 52.7402 101.627 52.7565 100.97C52.7728 100.312 52.5221 99.7091 52.1018 99.2626C51.684 98.8187 51.0987 98.5298 50.4389 98.4963C39.0003 98.19 27.7566 95.4882 17.4467 90.5685C13.851 88.7997 10.6553 86.3736 8.01243 83.4127C6.06503 81.2695 4.93571 78.5184 4.82043 75.6363C4.81876 72.8558 5.95689 70.0766 8.25097 67.4206C9.90131 65.5098 12.1653 63.6489 14.9906 61.9278C14.1177 60.5408 13.547 58.9829 13.3211 57.3554L13.3139 57.3018ZM49.9034 1.58621L27.1792 14.6125C23.4813 16.7517 21.2056 20.6703 21.2027 24.9095V51.03C21.2027 51.3348 21.2145 51.6384 21.2382 51.9404C21.4438 54.5587 22.5142 57.0372 24.2839 58.9942C25.1218 59.9279 26.0973 60.7192 27.1796 61.345L49.9036 74.3942C53.5979 76.5089 58.1527 76.5089 61.847 74.3942L84.5724 61.3441C85.6965 60.6978 86.7059 59.8734 87.5613 58.9027C89.3058 56.9259 90.3456 54.4365 90.5199 51.8176C90.5388 51.5508 90.5479 51.2927 90.5479 51.0346V24.9326C90.5449 20.6931 88.269 16.7743 84.5707 14.6352L61.847 1.5861C58.1523 -0.528825 53.597 -0.528611 49.9034 1.58621ZM85.3096 23.1185V50.9752C85.3083 53.4869 83.9655 55.8074 81.7843 57.0721L79.0794 58.6324L58.3697 70.6075L58.3699 52.7923C66.6201 51.6213 72.9621 44.5815 72.9621 36.0721C72.9621 34.3084 72.6897 32.6079 72.1843 31.0096L85.3096 23.1185ZM25.698 23.8748L39.519 31.5901C39.124 33.0174 38.9131 34.5203 38.9131 36.0721C38.9131 44.4956 45.1277 51.479 53.256 52.755L53.2561 70.5924L32.075 58.4454L29.233 56.8187C27.0411 55.5545 25.6948 53.2352 25.6927 50.7281L25.698 23.8748ZM56.0624 36.6897C58.8328 36.6897 64.3564 38.0635 64.3564 40.8111V42.8718C64.3564 43.2496 64.0447 43.5587 63.6637 43.5587H48.461C48.0801 43.5587 47.7684 43.2496 47.7684 42.8718V40.7939C47.7684 38.0635 53.2919 36.6897 56.0624 36.6897ZM56.3221 27.1075C58.3826 27.2278 60.0795 28.8935 60.218 30.937C60.3739 33.3411 58.4692 35.3503 56.0797 35.3503C53.7768 35.3503 51.924 33.4957 51.924 31.2289C51.9067 28.8591 53.9153 26.9702 56.3221 27.1075ZM55.5798 4.45502C56.8058 4.45502 58.0319 4.77442 59.1298 5.41433L82.3236 18.901L69.927 26.4432C66.8523 22.054 61.7332 19.1808 55.9376 19.1808C49.8815 19.1808 44.564 22.3182 41.5461 27.0443L28.0804 19.3829L52.0283 5.41515C53.1267 4.77465 54.3534 4.45502 55.5798 4.45502Z" fill="url(#paint0_linear_7929_29524)"/>
<circle id="Ellipse 245" opacity="0.21" cx="21.75" cy="18" r="18" fill="#5F45FF"/>
</g>
<defs>
<linearGradient id="paint0_linear_7929_29524" x1="112" y1="55.5" x2="7.62939e-06" y2="55.5" gradientUnits="userSpaceOnUse">
<stop stop-color="#0194FF"/>
<stop offset="1" stop-color="#D306FF"/>
</linearGradient>
</defs>
</svg>
