<svg xmlns="http://www.w3.org/2000/svg" width="32" height="33" viewBox="0 0 32 33" fill="none">
  <g clip-path="url(#clip0_9020_24027)">
    <circle cx="16" cy="16.5" r="16" fill="#5F45FF"/>
    <path d="M17.2094 25.3918L19.0493 26.8778C19.402 27.1628 19.9185 27.1073 20.2029 26.7538C20.4873 26.4003 20.4318 25.8827 20.0791 25.5977L19.7263 25.3125C21.1743 25.0651 22.5726 24.5837 23.8666 23.8873C24.6012 23.4914 25.2511 22.955 25.7797 22.3084C26.2725 21.71 26.5472 20.9612 26.5586 20.1854C26.5586 18.6293 25.4109 17.2159 23.3252 16.1982V16.5881C23.3254 17.0379 23.1501 17.4701 22.8368 17.7922C24.1638 18.4892 24.9175 19.3516 24.9175 20.1845C24.9175 20.9676 24.2573 21.7751 23.0574 22.4561C21.9012 23.074 20.6515 23.4974 19.3583 23.7092L19.7431 23.1033C19.9864 22.7203 19.8736 22.2121 19.4914 21.9684C19.1091 21.7246 18.602 21.8376 18.3588 22.2207L17.0318 24.3109C16.8078 24.664 16.8843 25.1293 17.2094 25.3918ZM22.7369 17.706C22.8391 17.6025 22.9278 17.487 23.0008 17.3619C23.1563 17.0973 23.2387 16.7973 23.2397 16.4917V16.0977V16.4925C23.2393 16.9457 23.06 17.3809 22.7395 17.7068L22.7369 17.706ZM10.5386 8.6677L14.67 6.28203C15.4608 5.82591 16.4358 5.82591 17.2266 6.28203L21.358 8.67192C22.1491 9.13265 22.6357 9.97715 22.6363 10.8905V15.6703C22.6363 15.7265 22.6343 15.7828 22.6304 15.8391C22.5931 16.403 22.3709 16.9391 21.998 17.3648C21.815 17.574 21.5987 17.7519 21.358 17.8914L17.2266 20.2813C16.4358 20.7374 15.4608 20.7374 14.67 20.2813L10.5386 17.8914C10.3066 17.7563 10.0974 17.5854 9.91895 17.3851C9.54063 16.9636 9.31187 16.4299 9.26793 15.8661C9.26285 15.8008 9.26031 15.7353 9.26031 15.6694V10.8863C9.26089 9.97293 9.74749 9.12843 10.5386 8.6677ZM16.3579 7.67187C16.0793 7.50816 15.7355 7.50816 15.4569 7.67187L11.674 9.89513L15.43 12.0485C15.7346 12.2227 16.1081 12.2172 16.4075 12.034L20.0215 9.81844L16.3579 7.67187ZM19.9863 16.7566L20.4774 16.471C20.7554 16.3083 20.9264 16.01 20.9266 15.6873V11.2702L17.2775 13.4817C17.1275 13.5728 16.9685 13.6482 16.8032 13.7068V18.6119L19.9863 16.7566ZM10.8695 15.6367C10.8698 15.9593 11.0409 16.2574 11.3191 16.4202L11.8334 16.7183L15.0935 18.6119V13.6902C14.916 13.6353 14.745 13.5616 14.5834 13.4702L10.8703 11.3708L10.8695 15.6367ZM5.43944 20.1772C5.43944 21.6611 6.48965 23.0343 8.3961 24.0444C10.4335 25.0358 12.6583 25.5837 14.9235 25.6519H14.965C15.4163 25.6537 15.7861 25.2947 15.7972 24.844C15.8083 24.3933 15.4565 24.0165 15.0056 23.9962C12.9795 23.9422 10.9879 23.4601 9.16174 22.5816C8.55696 22.2817 8.01598 21.8677 7.56865 21.3625C7.27361 21.0364 7.10247 20.6172 7.08504 20.178C7.08504 19.3497 7.82442 18.4919 9.12786 17.7939C8.79708 17.4663 8.61081 17.0205 8.61038 16.5553V16.1982C6.56502 17.2202 5.43859 18.6289 5.43859 20.178L5.43944 20.1772ZM23.3403 16.4927V16.0977V16.4919C23.3403 16.9462 23.1598 17.3824 22.8375 17.7068C23.1591 17.3823 23.3395 16.9467 23.3403 16.4927ZM8.65688 16.1982V16.5576C8.65756 17.028 8.83876 17.4784 9.15974 17.8074C8.8384 17.4783 8.65715 17.0275 8.65688 16.5568V16.1982Z" fill="white"/>
  </g>
  <defs>
    <clipPath id="clip0_9020_24027">
      <rect width="32" height="32" fill="white" transform="translate(0 0.5)"/>
    </clipPath>
  </defs>
</svg>
