<svg xmlns="http://www.w3.org/2000/svg" width="32" height="33" viewBox="0 0 32 33" fill="none">
  <g clip-path="url(#clip0_9020_24031)">
    <circle cx="16" cy="16.5" r="16" fill="#5F45FF"/>
    <path fill-rule="evenodd" clip-rule="evenodd" d="M15.9995 25.2999C20.8596 25.2999 24.7995 21.36 24.7995 16.4999C24.7995 11.6398 20.8596 7.69994 15.9995 7.69994C11.1393 7.69994 7.19945 11.6398 7.19945 16.4999C7.19945 21.36 11.1393 25.2999 15.9995 25.2999ZM15.9995 27.0599C21.8316 27.0599 26.5595 22.3321 26.5595 16.4999C26.5595 10.6678 21.8316 5.93994 15.9995 5.93994C10.1673 5.93994 5.43945 10.6678 5.43945 16.4999C5.43945 22.3321 10.1673 27.0599 15.9995 27.0599Z" fill="white"/>
    <path d="M21.2787 18.8921C21.2787 19.7221 20.8982 20.4468 20.1371 21.0663C19.376 21.6859 18.4174 22.0833 17.2611 22.2587V22.697C17.2611 22.9191 17.1587 23.112 16.9538 23.2757C16.7489 23.451 16.5074 23.5387 16.2293 23.5387C15.9512 23.5387 15.717 23.4569 15.5267 23.2932C15.3365 23.1295 15.2413 22.9308 15.2413 22.697V22.3113C14.2022 22.2061 13.302 21.9489 12.541 21.5398C11.7945 21.1306 11.2603 20.6455 10.9383 20.0844C10.7919 19.8156 10.7188 19.5935 10.7188 19.4181C10.7188 19.1843 10.8212 18.9856 11.0261 18.822C11.2457 18.6466 11.5091 18.559 11.8165 18.559C12.0653 18.559 12.2848 18.6174 12.4751 18.7343C12.6654 18.8512 12.8044 19.0032 12.8922 19.1902C13.0532 19.5759 13.3533 19.8974 13.7923 20.1546C14.2314 20.4 14.7291 20.5695 15.2852 20.6631L15.3731 16.9107C14.1583 16.5951 13.1996 16.1918 12.497 15.7009C11.8091 15.2099 11.4652 14.5611 11.4652 13.7546C11.4652 12.9363 11.8165 12.2525 12.519 11.7031C13.2215 11.142 14.1875 10.7971 15.417 10.6685V10.3003C15.417 10.0782 15.5121 9.88535 15.7024 9.72169C15.9073 9.54635 16.1415 9.45868 16.4049 9.45868C16.683 9.45868 16.9245 9.54635 17.1294 9.72169C17.3343 9.88535 17.4368 10.0782 17.4368 10.3003V10.651C18.6223 10.7445 19.5444 11.0134 20.203 11.4576C20.8763 11.9018 21.2129 12.4629 21.2129 13.1409C21.2129 13.398 21.1104 13.6143 20.9055 13.7896C20.7006 13.9533 20.4518 14.0351 20.1591 14.0351C19.8956 14.0351 19.6688 13.9708 19.4785 13.8422C19.3029 13.702 19.2004 13.5266 19.1711 13.3162C19.1272 13.0707 18.9443 12.8545 18.6223 12.6674C18.3149 12.4687 17.9051 12.3285 17.3928 12.2466L17.305 15.5781C19.9542 16.2678 21.2787 17.3725 21.2787 18.8921ZM13.5508 13.6318C13.5508 13.9358 13.6972 14.2046 13.9899 14.4384C14.2827 14.6605 14.751 14.8768 15.395 15.0872L15.417 12.2642C14.8022 12.346 14.3339 12.5096 14.0119 12.7551C13.7045 12.9889 13.5508 13.2811 13.5508 13.6318ZM17.2611 20.628C17.8466 20.5111 18.3149 20.3007 18.6662 19.9968C19.0321 19.6928 19.215 19.3538 19.215 18.9798C19.215 18.6758 19.0687 18.3953 18.776 18.1381C18.4832 17.8693 17.9856 17.6238 17.2831 17.4017L17.2611 20.628Z" fill="white"/>
  </g>
  <defs>
    <clipPath id="clip0_9020_24031">
      <rect width="32" height="32" fill="white" transform="translate(0 0.5)"/>
    </clipPath>
  </defs>
</svg>
