<svg xmlns="http://www.w3.org/2000/svg" width="21" height="20" viewBox="0 0 21 20" fill="none">
  <path fill-rule="evenodd" clip-rule="evenodd" d="M10.667 18C15.0853 18 18.667 14.4183 18.667 10C18.667 5.58172 15.0853 2 10.667 2C6.24871 2 2.66699 5.58172 2.66699 10C2.66699 14.4183 6.24871 18 10.667 18ZM9.13972 7.52727C9.13972 6.68981 9.82953 6 10.667 6C11.5045 6 12.1943 6.68981 12.1943 7.52727C12.1943 8.36473 11.5045 9.05455 10.667 9.05455C9.82953 9.05455 9.13972 8.36473 9.13972 7.52727ZM6.38339 7.3164C6.57434 7.12545 6.83332 7.01818 7.10336 7.01818C7.37339 7.01818 7.63237 7.12545 7.82332 7.3164C8.01427 7.50735 8.12154 7.76632 8.12154 8.03636C8.12154 8.3064 8.01427 8.56538 7.82332 8.75633C7.63237 8.94727 7.37339 9.05455 7.10336 9.05455C6.83332 9.05455 6.57434 8.94727 6.38339 8.75633C6.19245 8.56538 6.08517 8.3064 6.08517 8.03636C6.08517 7.76632 6.19245 7.50735 6.38339 7.3164ZM13.5107 7.3164C13.7016 7.12545 13.9606 7.01818 14.2306 7.01818C14.5007 7.01818 14.7596 7.12545 14.9506 7.3164C15.1415 7.50735 15.2488 7.76632 15.2488 8.03636C15.2488 8.3064 15.1415 8.56538 14.9506 8.75633C14.7596 8.94727 14.5007 9.05455 14.2306 9.05455C13.9606 9.05455 13.7016 8.94727 13.5107 8.75633C13.3197 8.56538 13.2124 8.3064 13.2124 8.03636C13.2124 7.76632 13.3197 7.50735 13.5107 7.3164ZM5.06699 11.2013C5.06699 10.5354 5.99099 10.0727 7.10336 10.0727C7.16153 10.0727 7.21782 10.0766 7.27399 10.0805C7.29498 10.082 7.31596 10.0834 7.33702 10.0847C6.86255 10.5194 6.59426 11.0715 6.59426 11.7104V12.1091H5.06699V11.2013ZM7.61245 11.7104C7.61245 10.7462 8.86888 10.0727 10.667 10.0727C12.4651 10.0727 13.7215 10.7462 13.7215 11.7104V13.1273H7.61245V11.7104ZM14.06 10.0805C14.1161 10.0766 14.1724 10.0727 14.2306 10.0727C15.343 10.0727 16.267 10.5354 16.267 11.2013V12.1091H14.7397V11.7104C14.7397 11.072 14.4714 10.5194 13.997 10.0847C14.018 10.0834 14.039 10.082 14.06 10.0805Z" fill="currentColor"/>
</svg>
