<svg xmlns="http://www.w3.org/2000/svg" width="10" height="10" viewBox="0 0 10 10" fill="none">
  <g>
    <path d="M4.71074 5.28926V9.11674C4.71074 9.60437 4.31511 10 3.82748 10H0.883264C0.395629 10 0 9.60437 0 9.11674V6.17252C0 5.68489 0.395629 5.28926 0.883264 5.28926H4.71074ZM7.06612 5.28926V6.77884H8.22314V5.28926H10V7.06612H8.55769V8.22314H10V10H8.22314V8.55769H7.06612V10H5.28926V8.22314H6.77884V7.06612H5.28926V5.28926H7.06612ZM3.5124 6.4876H1.15702V8.84297H3.5124V6.4876ZM3.82748 0C4.31511 0 4.71074 0.395629 4.71074 0.883264V4.71074H0.883264C0.395629 4.71074 0 4.31511 0 3.82748V0.883264C0 0.395629 0.395629 0 0.883264 0H3.82748ZM9.11674 0C9.60437 0 10 0.395629 10 0.883264V3.82748C10 4.31511 9.60437 4.71074 9.11674 4.71074H5.28926V0.883264C5.28926 0.395629 5.68489 0 6.17252 0H9.11674ZM3.5124 1.15702H1.15702V3.5124H3.5124V1.15702ZM8.84297 1.15702H6.4876V3.5124H8.84297V1.15702Z" fill="url(#paint0_linear_7545_4833)"/>
  </g>
  <defs>
    <linearGradient id="paint0_linear_7545_4833" x1="0" y1="5" x2="10" y2="5" gradientUnits="userSpaceOnUse">
      <stop stop-color="#0194FF"/>
      <stop offset="1" stop-color="#D306FF"/>
    </linearGradient>
  </defs>
</svg>
