<svg xmlns="http://www.w3.org/2000/svg" width="14" height="14" viewBox="0 0 14 14" fill="none">
  <path d="M4.32812 5.32218C4.50521 5.23894 4.58594 5.12709 4.57031 4.98662C4.55469 4.84615 4.49479 4.7343 4.39062 4.65106C4.35938 4.63025 4.25781 4.54961 4.08594 4.40914C3.91406 4.26867 3.70312 4.09959 3.45312 3.9019C3.89062 3.40245 4.41146 3.00966 5.01562 2.72352C5.61979 2.43738 6.27604 2.29431 6.98437 2.29431C7.64062 2.29431 8.25521 2.41657 8.82812 2.66109C9.40104 2.90561 9.90104 3.24117 10.3281 3.66778C10.7552 4.09439 11.0911 4.59383 11.3359 5.16611C11.5807 5.73839 11.7031 6.35228 11.7031 7.0078C11.7031 7.65292 11.5807 8.26161 11.3359 8.83389C11.0911 9.40617 10.7552 9.90561 10.3281 10.3322C9.90104 10.7588 9.40104 11.0944 8.82812 11.3389C8.25521 11.5834 7.64062 11.7057 6.98437 11.7057C6.44271 11.7057 5.92969 11.6198 5.44531 11.4482C4.96094 11.2765 4.51823 11.0346 4.11719 10.7224C3.71615 10.4103 3.3724 10.0435 3.08594 9.62207C2.79948 9.20067 2.58854 8.74024 2.45312 8.2408C2.38021 8.00149 2.24479 7.80379 2.04687 7.64771C1.84896 7.49164 1.61458 7.4136 1.34375 7.4136C1.02083 7.4136 0.747396 7.52806 0.523438 7.75697C0.299479 7.98588 0.187499 8.25641 0.187499 8.56856C0.187499 8.71423 0.213542 8.8547 0.265625 8.98997C0.484375 9.71832 0.807291 10.3894 1.23438 11.0033C1.66146 11.6172 2.16927 12.1453 2.75781 12.5875C3.34635 13.0297 4 13.3757 4.71875 13.6254C5.4375 13.8751 6.19271 14 6.98437 14C7.95312 14 8.86458 13.8179 9.71875 13.4537C10.5729 13.0896 11.3151 12.5901 11.9453 11.9554C12.5755 11.3207 13.0755 10.5793 13.4453 9.73133C13.8151 8.88332 14 7.97547 14 7.0078C14 6.04013 13.8151 5.12969 13.4453 4.27648C13.0755 3.42326 12.5755 2.6819 11.9453 2.0524C11.3151 1.42289 10.5729 0.923449 9.71875 0.554069C8.86458 0.18469 7.95312 0 6.98437 0C5.91146 0 4.91667 0.221107 4 0.663322C3.08333 1.10554 2.30208 1.70643 1.65625 2.466C1.41667 2.28911 1.21615 2.13564 1.05469 2.00557C0.893229 1.87551 0.791666 1.79487 0.749999 1.76366C0.687499 1.71163 0.619791 1.67261 0.546874 1.6466C0.473957 1.62059 0.40625 1.62059 0.34375 1.6466C0.28125 1.67261 0.226562 1.72724 0.179688 1.81048C0.132812 1.89372 0.098958 2.01858 0.078125 2.18506C0.067708 2.27871 0.057292 2.43738 0.046875 2.66109C0.036458 2.8848 0.026041 3.14493 0.015624 3.44147C0.00520802 3.73802 0 4.04496 0 4.36232C0 4.67967 0.00520802 4.97882 0.015624 5.25975C0.026041 5.61353 0.109375 5.86845 0.265625 6.02453C0.348958 6.10777 0.473958 6.15459 0.640625 6.16499C0.807292 6.1754 0.984374 6.15979 1.17188 6.11817C1.45312 6.05574 1.76302 5.98811 2.10156 5.91527C2.4401 5.84244 2.76302 5.767 3.07031 5.68896C3.3776 5.61092 3.64844 5.53809 3.88281 5.47046C4.11719 5.40282 4.26562 5.3534 4.32812 5.32218Z" fill="currentColor"/>
</svg>
