<svg xmlns="http://www.w3.org/2000/svg" width="8" height="8" viewBox="0 0 8 8" fill="none">
  <path d="M0 7.01831C0 7.27782 0.103259 7.52667 0.286993 7.70994V7.71679C0.669997 8.0944 1.28527 8.0944 1.66827 7.71679L6.04515 3.33309V5.86121C6.04721 6.39926 6.48397 6.83435 7.02202 6.83435C7.56007 6.83435 7.99683 6.39926 7.99889 5.86121V0.976874C7.99889 0.437361 7.56153 0 7.02201 0H2.13767C1.59962 0.00205917 1.16453 0.438814 1.16453 0.976866C1.16453 1.51492 1.59962 1.95167 2.13767 1.95373H4.66386L0.286993 6.32669C0.103259 6.50996 0 6.7588 0 7.01831Z" fill="currentColor"/>
</svg>
