<svg xmlns="http://www.w3.org/2000/svg" width="12" height="12" viewBox="0 0 12 12" fill="none">
  <path d="M0.75 5.25C0.75 4.83579 1.08579 4.5 1.5 4.5H11.25C11.6642 4.5 12 4.83579 12 5.25V6C12 6.41421 11.6642 6.75 11.25 6.75H1.5C1.08579 6.75 0.75 6.41421 0.75 6V5.25Z" fill="url(#paint0_linear_6113_4858)"/>
  <path d="M6 11.25C5.58579 11.25 5.25 10.9142 5.25 10.5V0.75C5.25 0.335786 5.58579 0 6 0H6.75C7.16421 0 7.5 0.335786 7.5 0.75V10.5C7.5 10.9142 7.16421 11.25 6.75 11.25H6Z" fill="url(#paint1_linear_6113_4858)"/>
  <defs>
    <linearGradient id="paint0_linear_6113_4858" x1="0.75" y1="5.625" x2="12" y2="5.625" gradientUnits="userSpaceOnUse">
      <stop stop-color="#0194FF"/>
      <stop offset="1" stop-color="#D306FF"/>
    </linearGradient>
    <linearGradient id="paint1_linear_6113_4858" x1="0.75" y1="5.625" x2="12" y2="5.625" gradientUnits="userSpaceOnUse">
      <stop stop-color="#0194FF"/>
      <stop offset="1" stop-color="#D306FF"/>
    </linearGradient>
  </defs>
</svg>
