<svg xmlns="http://www.w3.org/2000/svg" width="13" height="12" viewBox="0 0 13 12" fill="none">
  <path d="M10.5821 11.2143H2.41875C1.51717 11.2143 0.786133 10.4771 0.786133 9.56749V7.50891C0.786133 7.2816 0.969006 7.09728 1.19422 7.09728H2.01068C2.23603 7.09728 2.41875 7.2816 2.41875 7.50891V8.7441C2.41875 9.1989 2.7842 9.5675 3.23507 9.5675H9.76577C10.2166 9.5675 10.5821 9.1989 10.5821 8.7441V7.50891C10.5821 7.2816 10.7648 7.09728 10.9903 7.09728H11.8066C12.032 7.09728 12.2147 7.2816 12.2147 7.50891V9.56752C12.2147 10.4771 11.4838 11.2143 10.5821 11.2143ZM3.18233 3.13693C3.34745 2.97038 3.61536 2.97038 3.78049 3.13693L5.68424 5.05724V0.911812C5.68424 0.684501 5.86701 0.5 6.09234 0.5H6.90864C7.13404 0.5 7.31689 0.684501 7.31689 0.911812V5.05724L9.22064 3.13693C9.38578 2.97038 9.65356 2.97038 9.81868 3.13693L10.4169 3.74043C10.5821 3.907 10.5821 4.17708 10.4169 4.3438L7.04583 7.74424C7.03126 7.75891 6.76897 7.92063 6.50506 7.92075C6.23827 7.92087 5.96986 7.75907 5.95528 7.74424L2.58403 4.3438C2.41888 4.17707 2.41888 3.907 2.58403 3.74043L3.18233 3.13693Z" fill="currentColor"/>
</svg>
