<svg xmlns="http://www.w3.org/2000/svg" width="10" height="10" viewBox="0 0 10 10" fill="none">
  <g>
    <path d="M2 10C0.89543 10 0 9.10457 0 8V2.00001C0 0.895439 0.89543 4.85224e-06 2 4.85224e-06H3.33333C3.57211 -0.000904151 3.79315 0.125961 3.91281 0.332603C4.03247 0.539245 4.03247 0.794103 3.91281 1.00075C3.79315 1.20739 3.57211 1.33425 3.33333 1.33334H2C1.63181 1.33334 1.33333 1.63182 1.33333 2.00001V8C1.33334 8.36819 1.63181 8.66666 2 8.66666H8C8.36819 8.66666 8.66667 8.36819 8.66667 8V6.66666C8.66808 6.29947 8.96614 6.00255 9.33333 6.00255C9.70053 6.00255 9.99859 6.29947 10 6.66666V8C10 9.10457 9.10457 10 8 10H2ZM2.862 7.14C2.73661 7.01493 2.66614 6.8451 2.66614 6.668C2.66614 6.4909 2.73661 6.32107 2.862 6.196L7.724 1.33667H6C5.63281 1.33526 5.33588 1.0372 5.33588 0.670004C5.33588 0.302809 5.63281 0.0047452 6 0.00333983H9.33333C9.70152 0.00333983 10 0.301818 10 0.670009V4.00334C9.99859 4.37053 9.70053 4.66745 9.33333 4.66745C8.96614 4.66745 8.66808 4.37053 8.66667 4.00334V2.27802L3.80466 7.14468C3.54328 7.40238 3.12338 7.40238 2.862 7.14468V7.14Z" fill="url(#paint0_linear_7545_4837)"/>
  </g>
  <defs>
    <linearGradient id="paint0_linear_7545_4837" x1="0" y1="5" x2="10" y2="5" gradientUnits="userSpaceOnUse">
      <stop stop-color="#0194FF"/>
      <stop offset="1" stop-color="#D306FF"/>
    </linearGradient>
  </defs>
</svg>
