<svg xmlns="http://www.w3.org/2000/svg" width="18" height="18" viewBox="0 0 18 18" fill="none">
  <path fill-rule="evenodd" clip-rule="evenodd" d="M11.0463 1.16165C11.5095 0.768606 12.2037 0.825504 12.5967 1.28874L16.8392 6.28874C17.1165 6.61554 17.1787 7.07363 16.9986 7.46256C16.8186 7.85148 16.429 8.10041 16.0004 8.10041H2.00041C1.39289 8.10041 0.900405 7.60793 0.900405 7.00041C0.900405 6.3929 1.39289 5.90041 2.00041 5.90041H13.6245L10.9192 2.71209C10.5262 2.24885 10.5831 1.5547 11.0463 1.16165Z" fill="currentColor"/>
  <path fill-rule="evenodd" clip-rule="evenodd" d="M6.9545 16.8392C6.49127 17.2322 5.79712 17.1753 5.40407 16.7121L1.16165 11.7121C0.88436 11.3853 0.822134 10.9272 1.0022 10.5383C1.18226 10.1493 1.57182 9.90041 2.00041 9.90041H16.0004C16.6079 9.90041 17.1004 10.3929 17.1004 11.0004C17.1004 11.6079 16.6079 12.1004 16.0004 12.1004H4.37634L7.08159 15.2887C7.47464 15.752 7.41774 16.4461 6.9545 16.8392Z" fill="currentColor"/>
</svg>
