<svg xmlns="http://www.w3.org/2000/svg" width="10" height="10" viewBox="0 0 10 10" fill="none">
  <g>
    <path d="M6.39442 0C6.84822 0 7.2195 0.371289 7.2195 0.825086V6.39442C7.2195 6.84822 6.84822 7.2195 6.39442 7.2195H0.825086C0.371289 7.2195 0 6.84822 0 6.39442V0.825086C0 0.371289 0.371289 0 0.825086 0H6.39442ZM5.37415 1.45711H1.84535C1.55782 1.45711 1.32257 1.67852 1.32257 1.94914V5.27036C1.32257 5.54098 1.55782 5.76239 1.84535 5.76239H5.37415C5.66168 5.76239 5.89693 5.54098 5.89693 5.27036V1.94914C5.89693 1.67852 5.66168 1.45711 5.37415 1.45711Z" fill="url(#paint0_linear_7545_4835)"/>
    <path d="M8.99553 2.7805C9.44932 2.7805 9.82061 3.15178 9.82061 3.60558V9.17491C9.82061 9.62871 9.44932 10 8.99553 10H3.42619C2.9724 10 2.60111 9.62871 2.60111 9.17491L2.6011 7.93787H3.92367L3.92368 8.05086C3.92368 8.32148 4.15893 8.54289 4.44646 8.54289H7.97526C8.26279 8.54289 8.49804 8.32148 8.49804 8.05086V4.72964C8.49804 4.45902 8.26279 4.23761 7.97526 4.23761L7.82888 4.23757V2.7805H8.99553Z" fill="url(#paint1_linear_7545_4835)"/>
  </g>
  <defs>
    <linearGradient id="paint0_linear_7545_4835" x1="0" y1="5" x2="9.82061" y2="5" gradientUnits="userSpaceOnUse">
      <stop stop-color="#0194FF"/>
      <stop offset="1" stop-color="#D306FF"/>
    </linearGradient>
    <linearGradient id="paint1_linear_7545_4835" x1="0" y1="5" x2="9.82061" y2="5" gradientUnits="userSpaceOnUse">
      <stop stop-color="#0194FF"/>
      <stop offset="1" stop-color="#D306FF"/>
    </linearGradient>
  </defs>
</svg>
