<svg xmlns="http://www.w3.org/2000/svg" width="8" height="8" viewBox="0 0 8 8" fill="none">
  <path d="M7.99902 0.981688C7.99902 0.722177 7.89576 0.473331 7.71203 0.290062V0.283207C7.32903 -0.0944014 6.71376 -0.0944014 6.33075 0.283207L1.95387 4.66691V2.13879C1.95181 1.60074 1.51506 1.16565 0.977004 1.16565C0.438951 1.16565 0.00219393 1.60074 0.000135422 2.13879V7.02313C0.000135422 7.56264 0.437497 8 0.97701 8H5.86135C6.3994 7.99794 6.83449 7.56119 6.83449 7.02313C6.83449 6.48508 6.3994 6.04833 5.86135 6.04627H3.33516L7.71203 1.67331C7.89576 1.49004 7.99902 1.2412 7.99902 0.981688Z" fill="currentColor"/>
</svg>
