<svg width="16" height="17" viewBox="0 0 16 17" fill="none" xmlns="http://www.w3.org/2000/svg">
<g id="icon-send">
<path id="Subtract" fill-rule="evenodd" clip-rule="evenodd" d="M8 16.5C12.4183 16.5 16 12.9183 16 8.5C16 4.08172 12.4183 0.5 8 0.5C3.58172 0.5 0 4.08172 0 8.5C0 12.9183 3.58172 16.5 8 16.5ZM4 11.5193C4 11.7788 4.10327 12.0277 4.28703 12.211V12.2179C4.67009 12.5955 5.28545 12.5955 5.6685 12.2179L10.046 7.83356V10.362C10.0481 10.9002 10.4849 11.3353 11.023 11.3353C11.5611 11.3353 11.9979 10.9002 12 10.362V5.47701C12 4.93742 11.5626 4.5 11.023 4.5H6.13797C5.59984 4.50206 5.1647 4.93887 5.1647 5.477C5.1647 6.01513 5.59984 6.45194 6.13797 6.454H8.66451L4.28703 10.8276C4.10327 11.0109 4 11.2597 4 11.5193Z" fill="currentColor"/>
</g>
</svg>
