<svg xmlns="http://www.w3.org/2000/svg" width="19" height="18" viewBox="0 0 19 18" fill="none">
  <path d="M15.1626 5.08529C15.6251 5.08529 16 5.46021 16 5.9227C16 6.38518 15.6251 6.7601 15.1626 6.7601L15.1155 6.76011C15.1297 6.82112 15.1372 6.88469 15.1372 6.95001V13.9161C15.1372 14.5888 14.5919 15.1342 13.9192 15.1342H4.63158C3.95887 15.1342 3.41353 14.5888 3.41353 13.9161V6.8934C3.41353 6.84804 3.41711 6.80353 3.424 6.76011L3.33741 6.7601C2.87492 6.7601 2.5 6.38518 2.5 5.9227C2.5 5.46021 2.87492 5.08529 3.33741 5.08529H15.1626ZM13.4889 6.76011L5.09071 6.76011C5.0976 6.80353 5.10118 6.84804 5.10118 6.8934V12.7382C5.10118 13.1306 5.41929 13.4487 5.8117 13.4487H12.7567C13.1491 13.4487 13.4672 13.1306 13.4672 12.7382V6.95001C13.4672 6.88469 13.4747 6.82112 13.4889 6.76011ZM7.75282 7.06461C8.21531 7.06461 8.59023 7.43953 8.59023 7.90202V12.1652C8.59023 12.6277 8.21531 13.0026 7.75282 13.0026C7.29033 13.0026 6.91541 12.6277 6.91541 12.1652V7.90202C6.91541 7.43953 7.29033 7.06461 7.75282 7.06461ZM10.7979 7.06461C11.2604 7.06461 11.6353 7.43953 11.6353 7.90202V12.1652C11.6353 12.6277 11.2604 13.0026 10.7979 13.0026C10.3354 13.0026 9.96053 12.6277 9.96053 12.1652V7.90202C9.96053 7.43953 10.3354 7.06461 10.7979 7.06461ZM12.6504 3.53736C12.6504 3.99984 12.2755 4.37476 11.813 4.37476H6.73778C6.2753 4.37476 5.90038 3.99984 5.90038 3.53736C5.90038 3.07487 6.2753 2.69995 6.73778 2.69995H11.813C12.2755 2.69995 12.6504 3.07487 12.6504 3.53736Z" fill="currentColor"/>
</svg>
