<svg xmlns="http://www.w3.org/2000/svg" width="14" height="14" viewBox="0 0 14 14" fill="none">
  <path d="M13.7313 2.53666C13.6396 2.63935 13.5536 2.73062 13.4734 2.81049L13.267 3.01585C13.1982 3.08431 13.1351 3.14135 13.0778 3.18699L10.7561 0.859499C10.8478 0.768225 10.9625 0.659837 11.1001 0.534335C11.2376 0.408833 11.3523 0.311854 11.444 0.243398C11.6733 0.0608495 11.9198 -0.0190155 12.1835 0.0038031C12.4472 0.0266217 12.6593 0.0779634 12.8199 0.157828C12.9918 0.249103 13.1839 0.408833 13.396 0.637018C13.6081 0.865204 13.7715 1.1048 13.8861 1.3558C13.9434 1.51553 13.9807 1.70379 13.9979 1.92056C14.0151 2.13734 13.9263 2.34271 13.7313 2.53666ZM7.12939 4.50017L9.79783 1.82114L12.122 4.15449C11.1464 5.13392 10.2569 6.02116 9.45352 6.81623C9.1092 7.15039 8.77349 7.48167 8.4464 7.81006C8.1193 8.13846 7.82089 8.43229 7.55118 8.69155C7.28146 8.95081 7.06053 9.16686 6.88837 9.3397L6.57849 9.65082C6.49815 9.73148 6.40633 9.81213 6.30304 9.89279C6.19974 9.97345 6.08497 10.0426 5.95872 10.1002C5.83248 10.1578 5.65745 10.227 5.43364 10.3076C5.20984 10.3883 4.97743 10.466 4.73641 10.5409C4.49539 10.6158 4.26584 10.685 4.04778 10.7484C3.82971 10.8117 3.66329 10.8492 3.54852 10.8607C3.33046 10.8837 3.21282 10.8636 3.1956 10.8002C3.17838 10.7368 3.18699 10.5957 3.22142 10.3767C3.2329 10.2615 3.26159 10.0916 3.3075 9.86687C3.35341 9.64217 3.39932 9.4146 3.44523 9.18415C3.49114 8.95369 3.53991 8.73764 3.59156 8.536C3.64321 8.33435 3.68625 8.19319 3.72068 8.11254C3.77807 7.98579 3.83832 7.87632 3.90144 7.78414C3.96457 7.69196 4.05352 7.58825 4.16829 7.47302L7.12939 4.50017ZM12.9828 6.98276C13.2241 6.98276 13.454 7.04023 13.6724 7.15517C13.8908 7.27012 14 7.50575 14 7.86207V11.7759C14 12.0977 13.9397 12.3937 13.819 12.6638C13.6983 12.9339 13.5345 13.1695 13.3276 13.3707C13.1207 13.5718 12.8851 13.727 12.6207 13.8362C12.3563 13.9454 12.0862 14 11.8103 14H2.18966C1.91379 14 1.64368 13.9397 1.37931 13.819C1.11494 13.6983 0.882184 13.5345 0.681034 13.3276C0.479885 13.1207 0.316092 12.8764 0.189655 12.5948C0.0632184 12.3132 0 12.0115 0 11.6897V2.08621C0 1.85632 0.0632184 1.61782 0.189655 1.37069C0.316092 1.12356 0.479885 0.899425 0.681034 0.698276C0.882184 0.497126 1.1092 0.33046 1.36207 0.198276C1.61494 0.0660919 1.86782 0 2.12069 0H6.13793C6.45977 0 6.68678 0.117816 6.81897 0.353448C6.95115 0.58908 7.01724 0.827586 7.01724 1.06897C7.01724 1.31034 6.95115 1.5431 6.81897 1.76724C6.68678 1.99138 6.45977 2.10345 6.13793 2.10345H2.98276C2.74138 2.10345 2.54598 2.18678 2.39655 2.35345C2.24713 2.52011 2.17241 2.72414 2.17241 2.96552V11.069C2.17241 11.2989 2.24713 11.4914 2.39655 11.6466C2.54598 11.8017 2.74138 11.8793 2.98276 11.8793H10.9655C11.2069 11.8793 11.4138 11.8017 11.5862 11.6466C11.7586 11.4914 11.8448 11.2989 11.8448 11.069V7.86207C11.8448 7.70115 11.8822 7.56322 11.9569 7.44828C12.0316 7.33333 12.1236 7.24138 12.2328 7.17241C12.342 7.10345 12.4626 7.0546 12.5948 7.02586C12.727 6.99713 12.8563 6.98276 12.9828 6.98276Z" fill="currentColor"/>
</svg>
