<svg xmlns="http://www.w3.org/2000/svg" width="12" height="13" viewBox="0 0 12 13" fill="none">
  <g>
    <path d="M5.65289 6.84711V11.4401C5.65289 12.0252 5.17814 12.5 4.59298 12.5H1.05992C0.474755 12.5 0 12.0252 0 11.4401V7.90702C0 7.32186 0.474755 6.84711 1.05992 6.84711H5.65289ZM8.47934 6.84711V8.63461H9.86777V6.84711H12V8.97934H10.2692V10.3678H12V12.5H9.86777V10.7692H8.47934V12.5H6.34711V10.3678H8.13461V8.97934H6.34711V6.84711H8.47934ZM4.21488 8.28512H1.38843V11.1116H4.21488V8.28512ZM4.59298 0.5C5.17814 0.5 5.65289 0.974755 5.65289 1.55992V6.15289H1.05992C0.474755 6.15289 0 5.67814 0 5.09298V1.55992C0 0.974755 0.474755 0.5 1.05992 0.5H4.59298ZM10.9401 0.5C11.5252 0.5 12 0.974755 12 1.55992V5.09298C12 5.67814 11.5252 6.15289 10.9401 6.15289H6.34711V1.55992C6.34711 0.974755 6.82186 0.5 7.40702 0.5H10.9401ZM4.21488 1.88843H1.38843V4.71488H4.21488V1.88843ZM10.6116 1.88843H7.78512V4.71488H10.6116V1.88843Z" fill="currentColor"/>
  </g>
</svg>
