<svg xmlns="http://www.w3.org/2000/svg" width="20" height="20" viewBox="0 0 20 20" fill="none">
  <path d="M10 1.25C10.6288 1.25 11.2616 1.3125 11.8784 1.43555C12.5011 1.56055 13.1139 1.74805 13.6984 1.99414L17.1043 3.42791C17.4751 3.58403 17.7163 3.9472 17.7163 4.34957V8.61133C17.7183 9.77734 17.5154 10.9258 17.1116 12.0234C16.7143 13.11 16.1487 14.1224 15.4288 15.0337C15.427 15.036 15.4254 15.0384 15.4241 15.041C15.4228 15.0436 15.4212 15.0461 15.4194 15.0484C14.6987 15.9747 13.8358 16.7743 12.8527 17.4277C12.0504 17.9591 11.1789 18.3643 10.2569 18.6357C10.0905 18.6847 9.91354 18.6848 9.74714 18.6359C8.82109 18.3639 7.9458 17.9552 7.14135 17.4219C6.15698 16.7676 5.29315 15.9668 4.57195 15.0391L4.56994 15.0371L4.56793 15.0352C3.85316 14.1255 3.2909 13.1144 2.89518 12.0311C2.89473 12.0299 2.89451 12.0286 2.89451 12.0274C2.89451 12.0261 2.89428 12.0248 2.89383 12.0235C2.49049 10.9264 2.28782 9.77864 2.29178 8.61328V4.3514C2.29178 3.94909 2.53286 3.58596 2.90362 3.4298L6.30765 1.99609C6.89225 1.75 7.50497 1.5625 8.12773 1.4375C8.73844 1.3125 9.36924 1.25 10 1.25ZM10 0C8.56768 0 7.13332 0.283203 5.79136 0.849609L1.61228 2.60768C1.24132 2.76374 1.00005 3.12698 1.00005 3.52944V8.61133C0.996084 9.91992 1.22711 11.2168 1.67911 12.4473C2.11706 13.6523 2.74585 14.7812 3.54138 15.7949C4.34494 16.8281 5.31525 17.7266 6.41212 18.457C7.4392 19.1393 8.57491 19.6432 9.77399 19.9459C9.92103 19.9831 10.075 19.983 10.222 19.9458C11.4173 19.6433 12.5508 19.1413 13.5739 18.4629C14.6728 17.7344 15.6411 16.834 16.4446 15.8008C17.2462 14.7852 17.879 13.6523 18.321 12.4434C18.773 11.2129 19.002 9.91406 19 8.60742V3.52929C19 3.12691 18.7588 2.76372 18.3879 2.60761L14.2067 0.847656C12.8647 0.283203 11.4324 0 10 0ZM10 2.5C11.1009 2.5 12.1737 2.7168 13.1862 3.14258L15.8166 4.25015C16.1875 4.40628 16.4286 4.76944 16.4286 5.17179V8.61328C16.4306 9.63412 16.254 10.6393 15.9009 11.6017C15.9004 11.6029 15.9002 11.6042 15.9002 11.6055C15.9002 11.6068 15.9 11.608 15.8996 11.6093C15.548 12.5715 15.046 13.4712 14.4076 14.2793L14.4016 14.2871L14.3955 14.2949C13.7567 15.1113 12.9953 15.8203 12.1255 16.3965C11.5513 16.7766 10.9377 17.0815 10.2925 17.3086C10.1019 17.3758 9.89409 17.3759 9.70339 17.309C9.0547 17.0813 8.43889 16.7744 7.86255 16.3906C6.99269 15.8125 6.22931 15.1055 5.59248 14.2852L5.58846 14.2793L5.58444 14.2734C4.94963 13.4668 4.45142 12.5703 4.10187 11.6094L4.09986 11.6055L4.09785 11.6016C3.74629 10.6445 3.5695 9.63867 3.5715 8.61719V5.17163C3.5715 4.76936 3.81253 4.40626 4.18323 4.25008L6.81189 3.14258C7.82438 2.7168 8.89714 2.5 10 2.5Z" fill="currentColor"/>
</svg>
