<svg xmlns="http://www.w3.org/2000/svg" width="21" height="21" viewBox="0 0 21 21" fill="none">
  <path fill-rule="evenodd" clip-rule="evenodd" d="M2.5036 2.51441C2.44533 2.56922 2.31818 2.73922 2.31818 3.31818V4.95455C2.31818 5.5335 2.44533 5.70351 2.5036 5.75832C2.5758 5.82625 2.79281 5.95455 3.43636 5.95455H7.10909C7.75265 5.95455 7.96965 5.82625 8.04186 5.75832C8.10012 5.70351 8.22727 5.5335 8.22727 4.95455V3.31818C8.22727 2.73922 8.10012 2.56922 8.04186 2.51441C7.96965 2.44648 7.75265 2.31818 7.10909 2.31818H3.43636C2.79281 2.31818 2.5758 2.44648 2.5036 2.51441ZM1.25777 1.19014C1.83783 0.644431 2.63447 0.5 3.43636 0.5H7.10909C7.91099 0.5 8.70762 0.644431 9.28769 1.19014C9.8817 1.74896 10.0455 2.5335 10.0455 3.31818V4.95455C10.0455 5.73922 9.8817 6.52376 9.28769 7.08259C8.70762 7.6283 7.91099 7.77273 7.10909 7.77273H3.43636C2.63447 7.77273 1.83783 7.6283 1.25777 7.08259C0.663756 6.52376 0.5 5.73922 0.5 4.95455V3.31818C0.5 2.5335 0.663756 1.74896 1.25777 1.19014ZM11.7123 1.19014C12.2924 0.644431 13.089 0.5 13.8909 0.5H17.5636C18.3655 0.5 19.1622 0.644431 19.7422 1.19014C20.3362 1.74896 20.5 2.5335 20.5 3.31818V9.5C20.5 10.2847 20.3362 11.0692 19.7422 11.628C19.1622 12.1737 18.3655 12.3182 17.5636 12.3182H13.8909C13.089 12.3182 12.2924 12.1737 11.7123 11.628C11.1183 11.0692 10.9545 10.2847 10.9545 9.5V3.31818C10.9545 2.5335 11.1183 1.74896 11.7123 1.19014ZM12.9581 2.51441C12.8999 2.56922 12.7727 2.73922 12.7727 3.31818V9.5C12.7727 10.079 12.8999 10.249 12.9581 10.3038C13.0303 10.3717 13.2474 10.5 13.8909 10.5H17.5636C18.2072 10.5 18.4242 10.3717 18.4964 10.3038C18.5547 10.249 18.6818 10.079 18.6818 9.5V3.31818C18.6818 2.73922 18.5547 2.56922 18.4964 2.51441C18.4242 2.44648 18.2072 2.31818 17.5636 2.31818H13.8909C13.2474 2.31818 13.0303 2.44648 12.9581 2.51441ZM2.5036 10.6962C2.44533 10.751 2.31818 10.921 2.31818 11.5V17.6818C2.31818 18.2608 2.44533 18.4308 2.5036 18.4856C2.5758 18.5535 2.79281 18.6818 3.43636 18.6818H7.10909C7.75265 18.6818 7.96965 18.5535 8.04186 18.4856C8.10012 18.4308 8.22727 18.2608 8.22727 17.6818V11.5C8.22727 10.921 8.10012 10.751 8.04186 10.6962C7.96965 10.6283 7.75265 10.5 7.10909 10.5H3.43636C2.79281 10.5 2.5758 10.6283 2.5036 10.6962ZM1.25777 9.37196C1.83783 8.82625 2.63447 8.68182 3.43636 8.68182H7.10909C7.91099 8.68182 8.70762 8.82625 9.28769 9.37196C9.8817 9.93078 10.0455 10.7153 10.0455 11.5V17.6818C10.0455 18.4665 9.8817 19.251 9.28769 19.8099C8.70762 20.3556 7.91099 20.5 7.10909 20.5H3.43636C2.63447 20.5 1.83783 20.3556 1.25777 19.8099C0.663756 19.251 0.5 18.4665 0.5 17.6818V11.5C0.5 10.7153 0.663756 9.93078 1.25777 9.37196ZM11.7123 13.9174C12.2924 13.3717 13.089 13.2273 13.8909 13.2273H17.5636C18.3655 13.2273 19.1622 13.3717 19.7422 13.9174C20.3362 14.4762 20.5 15.2608 20.5 16.0455V17.6818C20.5 18.4665 20.3362 19.251 19.7422 19.8099C19.1622 20.3556 18.3655 20.5 17.5636 20.5H13.8909C13.089 20.5 12.2924 20.3556 11.7123 19.8099C11.1183 19.251 10.9545 18.4665 10.9545 17.6818V16.0455C10.9545 15.2608 11.1183 14.4762 11.7123 13.9174ZM12.9581 15.2417C12.8999 15.2965 12.7727 15.4665 12.7727 16.0455V17.6818C12.7727 18.2608 12.8999 18.4308 12.9581 18.4856C13.0303 18.5535 13.2474 18.6818 13.8909 18.6818H17.5636C18.2072 18.6818 18.4242 18.5535 18.4964 18.4856C18.5547 18.4308 18.6818 18.2608 18.6818 17.6818V16.0455C18.6818 15.4665 18.5547 15.2965 18.4964 15.2417C18.4242 15.1737 18.2072 15.0455 17.5636 15.0455H13.8909C13.2474 15.0455 13.0303 15.1737 12.9581 15.2417Z" fill="currentColor"/>
</svg>
