<svg xmlns="http://www.w3.org/2000/svg" width="20" height="20" viewBox="0 0 20 20" fill="none">
  <path d="M19 3V17C19 18.103 18.103 19 17 19H3C1.897 19 1 18.103 1 17V3C1 1.897 1.897 1 3 1H17C18.103 1 19 1.897 19 3ZM11.7586 5.7931V12.2H10.3256C9.86762 12.2 9.63862 12.754 9.96162 13.078L12.1086 15.225C12.4676 15.584 13.0486 15.584 13.4076 15.225L15.5546 13.078C15.8796 12.754 15.6496 12.2 15.1916 12.2H13.7586V5.7931C13.7586 5.2411 13.3106 4.7931 12.7586 4.7931C12.2066 4.7931 11.7586 5.2411 11.7586 5.7931ZM6.59138 4.775L4.44438 6.922C4.12038 7.246 4.35038 7.8 4.80838 7.8H6.24138V14.2069C6.24138 14.7589 6.68938 15.2069 7.24138 15.2069C7.79338 15.2069 8.24138 14.7589 8.24138 14.2069V7.8H9.67438C10.1324 7.8 9.74069 7.246 9.41769 6.922L7.89138 4.775C7.53238 4.416 6.95038 4.416 6.59138 4.775Z" fill="url(#paint0_linear_7410_4850)"/>
  <defs>
    <linearGradient id="paint0_linear_7410_4850" x1="10" y1="19" x2="10" y2="1" gradientUnits="userSpaceOnUse">
      <stop stop-color="#0194FF"/>
      <stop offset="1" stop-color="#D306FF"/>
    </linearGradient>
  </defs>
</svg>
